<?xml version="1.0" standalone="no"?><!DOCTYPE svg PUBLIC "-//W3C//DTD SVG 1.1//EN" "http://www.w3.org/Graphics/SVG/1.1/DTD/svg11.dtd"><svg t="1587451416055" class="icon" viewBox="0 0 1024 1024" version="1.1" xmlns="http://www.w3.org/2000/svg" p-id="1943" xmlns:xlink="http://www.w3.org/1999/xlink" width="200" height="200"><defs><style type="text/css"></style></defs><path d="M512.271856 139.636751 512.271856 0 326.090231 186.181624l186.181624 186.181624L512.271856 232.727563c153.599467 0 279.272437 125.67297 279.272437 279.272437 0 46.544873-13.963782 93.090812-32.582157 130.327563l69.817843 69.817843c32.582157-60.508655 55.854061-125.67297 55.854061-200.145406C884.635104 307.2 717.071856 139.636751 512.271856 139.636751zM512.271856 791.272437c-153.599467 0-279.272437-125.67297-279.272437-279.272437 0-46.545939 13.963782-93.090812 32.582157-130.327563l-69.817843-69.817843c-32.582157 60.508655-55.854061 125.67297-55.854061 200.145406 0 204.8 167.563249 372.363249 372.363249 372.363249l0 139.636751 186.181624-186.181624-186.181624-186.181624L512.272922 791.272437z" p-id="1944" fill="#8a8a8a"></path></svg>