<?xml version="1.0" standalone="no"?><!DOCTYPE svg PUBLIC "-//W3C//DTD SVG 1.1//EN" "http://www.w3.org/Graphics/SVG/1.1/DTD/svg11.dtd"><svg t="1587959815589" class="icon" viewBox="0 0 1024 1024" version="1.1" xmlns="http://www.w3.org/2000/svg" p-id="1964" xmlns:xlink="http://www.w3.org/1999/xlink" width="200" height="200"><defs><style type="text/css"></style></defs><path d="M885.6 856.8h-232c-8 0-14.4-6.4-14.4-14.4s6.4-14.4 14.4-14.4h232c8 0 14.4 6.4 14.4 14.4s-6.4 14.4-14.4 14.4z" fill="#8a8a8a" p-id="1965"></path><path d="M784 726.4v232c0 8-6.4 14.4-14.4 14.4s-14.4-6.4-14.4-14.4v-232c0-8 6.4-14.4 14.4-14.4 8 0.8 14.4 7.2 14.4 14.4z" fill="#8a8a8a" p-id="1966"></path><path d="M456.8 530.4c-90.4 0-175.2-75.2-212.8-187.2-50.4-33.6-31.2-93.6-31.2-94.4l0.8-1.6c4-7.2 8.8-12.8 13.6-16 3.2-84.8 52-156.8 122.4-180.8 8.8-3.2 13.6-6.4 20.8-12 1.6-1.6 4-3.2 6.4-4.8 21.6-14.4 51.2-23.2 80.8-23.2 118.4 0 209.6 75.2 226.4 188 4.8 3.2 9.6 8.8 14.4 16l0.8 1.6c0 0.8 20 52.8-19.2 89.6-27.2 128-122.4 224.8-223.2 224.8zM228 254.4c-1.6 6.4-13.6 51.2 27.2 76l2.4 1.6 0.8 2.4C287.2 424 359.2 514.4 456.8 514.4c93.6 0 183.2-92.8 208-215.2l0.8-2.4 2.4-1.6c31.2-27.2 19.2-66.4 16.8-72.8-5.6-8-9.6-10.4-12-12l-4-2.4-0.8-4C652.8 96 570.4 26.4 456.8 26.4c-25.6 0-53.6 8-71.2 20-1.6 1.6-4 3.2-5.6 4.8-7.2 5.6-13.6 10.4-24.8 14.4-64.8 22.4-109.6 90.4-111.2 170.4v4.8l-4 2.4c-3.2 0-7.2 3.2-12 11.2zM476 802.4c-7.2 0-15.2-3.2-19.2-7.2L432 772c-7.2-6.4-5.6-17.6-4.8-21.6l13.6-121.6-39.2-40.8c-3.2-3.2-4-8-2.4-12.8 2.4-5.6 8-8.8 15.2-8.8h102.4c7.2 0 12.8 3.2 15.2 8.8 1.6 4 0.8 8.8-2.4 12.8l-39.2 40.8L517.6 752c1.6 7.2-0.8 14.4-6.4 20l-22.4 26.4c-3.2 2.4-8 4-12.8 4z m-62.4-228c-4 0-7.2 1.6-8 4-0.8 1.6 0 2.4 0.8 4l42.4 44L435.2 752c-0.8 7.2 0 12 2.4 14.4l24.8 23.2c4.8 4.8 16 7.2 20 3.2l22.4-26.4c4-4 5.6-8 4.8-12.8l-28.8-128 42.4-44c1.6-1.6 1.6-2.4 0.8-4s-3.2-4-8-4H413.6z" fill="#8a8a8a" p-id="1967"></path><path d="M472 1020.8c-143.2 0-283.2-24.8-393.6-70.4-13.6-5.6-24-18.4-26.4-32.8-2.4-16.8-4-33.6-4-50.4 0-161.6 116-299.2 275.2-328 20.8-4 41.6 8 48.8 28l75.2 203.2c4.8 13.6 16.8 18.4 25.6 18.4 9.6 0 20.8-4.8 25.6-18.4L568.8 568c7.2-20 27.2-32 48.8-28.8 43.2 7.2 83.2 22.4 120.8 45.6 10.4 6.4 16 18.4 15.2 30.4-1.6 12.8-9.6 22.4-21.6 27.2-84.8 29.6-142.4 110.4-142.4 200 0 43.2 12.8 84.8 37.6 120 6.4 9.6 8 21.6 3.2 32-4.8 10.4-14.4 16.8-25.6 18.4-44 5.6-88.8 8-132.8 8zM331.2 555.2c-1.6 0-3.2 0-4.8 0.8C174.4 582.4 64 713.6 64 867.2c0 16 1.6 32 4 48 1.6 8.8 8 16.8 16 20 108.8 44.8 246.4 68.8 388 68.8 44 0 88-2.4 130.4-7.2 5.6-0.8 10.4-4 12.8-8.8 2.4-5.6 1.6-11.2-1.6-16-26.4-38.4-40-82.4-40-128.8 0-96.8 61.6-183.2 152.8-215.2 6.4-2.4 10.4-7.2 11.2-13.6 0.8-6.4-2.4-12-7.2-15.2-35.2-22.4-73.6-36.8-114.4-44-13.6-2.4-26.4 5.6-31.2 18.4l-69.6 201.6c-6.4 17.6-22.4 28.8-40.8 29.6h-0.8c-18.4 0-34.4-11.2-40.8-28.8l-75.2-203.2c-4.8-10.4-15.2-17.6-26.4-17.6z" fill="#8a8a8a" p-id="1968"></path></svg>