<?xml version="1.0" standalone="no"?><!DOCTYPE svg PUBLIC "-//W3C//DTD SVG 1.1//EN" "http://www.w3.org/Graphics/SVG/1.1/DTD/svg11.dtd"><svg t="1585457881910" class="icon" viewBox="0 0 1024 1024" version="1.1" xmlns="http://www.w3.org/2000/svg" p-id="3245" xmlns:xlink="http://www.w3.org/1999/xlink" width="200" height="200"><defs><style type="text/css"></style></defs><path d="M489.566708 682.343542 489.566708 682.343542C489.566708 671.771531 491.62954 661.457378 495.755203 652.690345 499.107303 642.634038 505.295798 634.382713 512.773562 626.389241 526.697674 612.465129 546.81028 603.182387 568.985718 603.182387L685.019986 603.182387C695.849849 603.182387 705.906156 605.760926 715.446752 609.370882 724.72949 613.496544 733.238671 619.169331 740.716437 626.389241 747.936343 634.382713 753.866983 642.634038 757.734792 652.690345 761.602601 661.457378 763.92329 671.771531 763.92329 682.343542L763.92329 693.431264 489.566708 693.431264 489.566708 682.343542ZM555.577314 384.522255 555.577314 384.522255C573.627089 366.47248 599.154628 355.126907 626.487144 355.126907 654.335367 355.126907 679.605057 366.47248 697.912686 384.522255 715.962457 402.57203 727.050179 427.841715 727.050179 455.432086 727.050179 483.538164 715.962457 508.549995 697.912686 527.115478 679.862909 544.391691 655.62464 555.737264 628.034269 555.995118L625.455729 555.995118C597.865358 555.737264 573.369235 544.391691 555.577314 527.115478 537.527539 508.549995 526.181966 483.538164 526.181966 455.432086 526.181966 427.841715 537.527539 402.57203 555.577314 384.522255L555.577314 384.522255ZM465.844147 741.134239 465.844147 741.134239 787.387996 741.134239C800.538549 741.134239 811.368412 730.046523 811.368412 716.89597L811.368412 682.343542C811.368412 665.583039 807.758455 649.080388 801.312112 634.382713 794.865761 619.169331 785.840876 604.729511 773.979591 593.383938 762.891875 581.780511 748.194202 572.239916 732.980819 566.051421L727.308031 563.730736 731.433693 559.862927C757.734792 533.81968 774.237449 496.173006 774.237449 455.432086 774.237449 414.949018 757.734792 377.818053 731.433693 351.516952 704.616882 324.700143 667.228067 307.939638 626.487144 307.939638 585.746224 307.939638 548.873112 324.700143 522.572011 351.516952 495.755203 377.818053 478.994697 414.949018 478.994697 455.432086 478.994697 496.173006 495.755203 533.81968 522.572011 559.862927L525.924112 563.730736C507.874337 569.91923 492.403101 580.233387 479.252551 593.383938 467.649124 604.729511 458.366383 619.169331 451.920035 634.382713 445.73154 649.080388 442.121585 665.583039 442.121585 682.343542L442.121585 716.89597C442.121585 730.046523 452.693596 741.134239 465.844147 741.134239L465.844147 741.134239ZM944.936746 944.838843 944.936746 944.838843 308.553249 944.838843 308.553249 79.223202 944.936746 79.223202 944.936746 944.838843ZM261.623834 944.838843 261.623834 944.838843 78.805398 944.838843 78.805398 867.740517 137.596094 867.740517C159.255824 867.740517 177.047746 849.948599 177.047746 828.031013 177.047746 806.371286 159.255824 788.837213 137.596094 788.837213L78.805398 788.837213 78.805398 656.816006 137.596094 656.816006C159.255824 656.816006 177.047746 639.281937 177.047746 617.106499 177.047746 595.704623 159.255824 577.912702 137.596094 577.912702L78.805398 577.912702 78.805398 445.89149 137.596094 445.89149C159.255824 445.89149 177.047746 428.357423 177.047746 406.697693 177.047746 385.037963 159.255824 367.246041 137.596094 367.246041L78.805398 367.246041 78.805398 235.22483 137.596094 235.22483C159.255824 235.22483 177.047746 217.948617 177.047746 195.773179 177.047746 174.113449 159.255824 156.579381 137.596094 156.579381L78.805398 156.579381 78.805398 79.223202 261.623834 79.223202 261.623834 944.838843ZM984.130546 0.3199 39.869455 0.3199C17.951871 0.3199 0.15995 17.853967 0.15995 39.771551L0.15995 984.290496C0.15995 1006.208082 17.951871 1023.742148 39.869455 1023.742148L984.130546 1023.742148C1005.790273 1023.742148 1023.84005 1006.208082 1023.84005 984.290496L1023.84005 39.771551C1023.84005 17.853967 1005.790273 0.3199 984.130546 0.3199L984.130546 0.3199Z" p-id="3246" fill="#8a8a8a"></path></svg>