<?xml version="1.0" standalone="no"?><!DOCTYPE svg PUBLIC "-//W3C//DTD SVG 1.1//EN" "http://www.w3.org/Graphics/SVG/1.1/DTD/svg11.dtd"><svg t="1587884207799" class="icon" viewBox="0 0 1024 1024" version="1.1" xmlns="http://www.w3.org/2000/svg" p-id="1927" xmlns:xlink="http://www.w3.org/1999/xlink" width="200" height="200"><defs><style type="text/css"></style></defs><path d="M530.4 572.2c-82.6 22.5-172.9 93.3-172.9 162.3v88.3H124.3c-14.3 0-25.9-11.6-25.9-25.9v-60.5c0-114.8 228.4-172.7 342.8-172.7 25.4-0.1 56.4 2.8 89.2 8.5z m-172.9-60.4c-85.9 0-155.5-69.6-155.5-155.5s69.6-155.5 155.5-155.5S513 270.4 513 356.3s-69.6 155.5-155.5 155.5z m342.9 51.8c66.9-1.7 123-56.7 126.1-123.5 3.3-73-54.1-134.1-126.8-135.5h-5.2c-71.5 1.4-128.4 60.6-127 132.1 1.4 71.5 60.6 128.7 132.9 126.9z m-6 51.9c-77.8 0-233.2 46.3-233.2 138.2v43.2c0 14.3 11.6 25.9 25.9 25.9h414.6c14.3 0 25.9-11.6 25.9-25.9v-43.2c0-92-155.4-138.2-233.2-138.2z" p-id="1928" fill="#8a8a8a"></path></svg>